HIERARCHY
ROOT Hips
{
	OFFSET -21.947001 39.810204 44.525997
	CHANNELS 6 Xposition Yposition Zposition Zrotation Xrotation Yrotation
	JOINT Chest
	{
		OFFSET -0.201599 0.334099 6.453201
		CHANNELS 6 Xposition Yposition Zposition Zrotation Xrotation Yrotation
		JOINT Chest2
		{
			OFFSET 0.000000 0.000000 3.568001
			CHANNELS 6 Xposition Yposition Zposition Zrotation Xrotation Yrotation
			JOINT Neck
			{
				OFFSET 0.000000 0.000000 8.296402
				CHANNELS 6 Xposition Yposition Zposition Zrotation Xrotation Yrotation
				JOINT Head
				{
					OFFSET 0.000000 0.000000 2.173901
					CHANNELS 6 Xposition Yposition Zposition Zrotation Xrotation Yrotation
					End Site
					{
						OFFSET 0.000000 0.000000 7.891998
					}
				}
			}
			JOINT LeftCollar
			{
				OFFSET 1.927601 0.221401 6.049000
				CHANNELS 6 Xposition Yposition Zposition Zrotation Xrotation Yrotation
				JOINT LeftShoulder
				{
					OFFSET 4.959700 0.000000 0.000000
					CHANNELS 6 Xposition Yposition Zposition Zrotation Xrotation Yrotation
					JOINT LeftElbow
					{
						OFFSET 0.000000 0.000000 -8.654202
						CHANNELS 6 Xposition Yposition Zposition Zrotation Xrotation Yrotation
						JOINT LeftWrist
						{
							OFFSET 0.000000 0.000000 -13.864101
							CHANNELS 6 Xposition Yposition Zposition Zrotation Xrotation Yrotation
							End Site
							{
								OFFSET 0.000000 0.000000 -2.173901
							}
						}
					}
				}
			}
			JOINT RightCollar
			{
				OFFSET -3.155701 -0.764999 6.687801
				CHANNELS 6 Xposition Yposition Zposition Zrotation Xrotation Yrotation
				JOINT RightShoulder
				{
					OFFSET -3.592899 0.000000 0.000000
					CHANNELS 6 Xposition Yposition Zposition Zrotation Xrotation Yrotation
					JOINT RightElbow
					{
						OFFSET 0.000000 0.000000 -10.352398
						CHANNELS 6 Xposition Yposition Zposition Zrotation Xrotation Yrotation
						JOINT RightWrist
						{
							OFFSET 0.000000 0.000000 -12.750301
							CHANNELS 6 Xposition Yposition Zposition Zrotation Xrotation Yrotation
							End Site
							{
								OFFSET 0.000000 0.000000 -2.173901
							}
						}
					}
				}
			}
		}
	}
	JOINT LeftHip
	{
		OFFSET 2.460600 -0.518101 -2.735500
		CHANNELS 6 Xposition Yposition Zposition Zrotation Xrotation Yrotation
		JOINT LeftKnee
		{
			OFFSET 0.000000 -0.000004 -17.005899
			CHANNELS 6 Xposition Yposition Zposition Zrotation Xrotation Yrotation
			JOINT LeftAnkle
			{
				OFFSET 0.000000 0.000000 -19.194401
				CHANNELS 6 Xposition Yposition Zposition Zrotation Xrotation Yrotation
				End Site
				{
					OFFSET 0.000000 -8.134600 0.000000
				}
			}
		}
	}
	JOINT RightHip
	{
		OFFSET -3.115499 -0.679600 -2.320301
		CHANNELS 6 Xposition Yposition Zposition Zrotation Xrotation Yrotation
		JOINT RightKnee
		{
			OFFSET 0.000000 -0.000004 -17.680401
			CHANNELS 6 Xposition Yposition Zposition Zrotation Xrotation Yrotation
			JOINT RightAnkle
			{
				OFFSET 0.000000 0.000000 -16.993797
				CHANNELS 6 Xposition Yposition Zposition Zrotation Xrotation Yrotation
				End Site
				{
					OFFSET 0.000000 -8.842300 0.000000
				}
			}
		}
	}
}
MOTION
Frames: 4
Frame Time: 0.041667
39.357010 0.053799 43.860500 2815.629536 32.192686 -14.873287 -0.201598 0.334095 6.453196 -20.959079 16.574782 6.559005 -0.000001 0.000004 3.568000 3.191648 -6.754585 -0.374885 0.000001 -0.000005 8.296392 192.396839 -136.172197 176.579774 -0.000006 0.000004 2.173899 8.731202 -1.210285 9.161796 1.927599 0.221410 6.048995 -28.599175 7.881844 1.861286 4.959700 -0.000005 0.000009 137.238212 176.448102 112.909762 0.000000 0.000000 -8.654199 17.408236 -8.968160 1.336097 -0.000001 0.000001 -13.864097 3961.997121 -13.625889 -10.007957 -3.155701 -0.765004 6.687797 32.759889 1.415764 -6.351620 -3.592906 0.000002 0.000008 -157.685176 184.355234 227.920954 -0.000002 0.000002 -10.352398 -400.114968 -1.440539 -358.676866 -0.000005 0.000000 -12.750305 131.639370 184.935554 -187.300726 2.460600 -0.518100 -2.735504 -1033.154085 -34.751668 33.176899 0.000001 0.000000 -17.005901 869.835191 145.900955 -179.231431 -0.000002 0.000001 -19.194399 168.106542 155.985661 170.792459 -3.115495 -0.679601 -2.320305 -421.642276 -45.271833 -44.201849 -0.000007 -0.000003 -17.680403 -747.805502 169.455054 -228.215868 0.000006 -0.000005 -16.993797 1365.520816 20.736089 -395.831346
39.686905 -0.051991 43.530800 2813.980674 33.300051 -14.144328 -0.201599 0.334103 6.453207 -19.408969 17.986825 6.643801 0.000003 0.000010 3.568000 2.785576 -6.710551 -0.380837 0.000001 -0.000016 8.296408 189.842130 -139.229472 176.570198 -0.000005 0.000000 2.173902 7.066353 -3.810024 7.416918 1.927598 0.221401 6.049003 -27.070934 7.058387 1.687864 4.959701 0.000000 0.000011 137.098057 179.537137 113.724699 0.000001 0.000004 -8.654194 15.500781 -8.022342 2.113107 0.000000 0.000004 -13.864104 3961.392130 -13.625349 -9.968614 -3.155703 -0.765010 6.687803 33.146184 0.982254 -6.449478 -3.592906 -0.000001 0.000007 -157.819594 186.396723 229.718714 -0.000005 -0.000004 -10.352394 -399.300263 -2.872789 -358.691537 -0.000001 -0.000003 -12.750301 127.679608 185.402630 -187.220608 2.460600 -0.518096 -2.735502 -1027.309301 -36.059649 39.964769 -0.000003 -0.000002 -17.005892 859.098735 143.067615 -176.032362 -0.000002 0.000012 -19.194397 173.321665 156.689075 169.685067 -3.115495 -0.679593 -2.320303 -424.021204 -45.724288 -47.932321 -0.000003 -0.000006 -17.680399 -745.529519 171.484125 -229.345950 0.000005 0.000000 -16.993801 1364.227670 20.925849 -396.712987
39.976120 -0.206997 43.212997 2812.216846 34.239441 -13.443497 -0.201599 0.334108 6.453191 -18.006098 19.498442 6.796333 0.000000 0.000004 3.567996 2.296155 -6.863543 -0.404822 0.000001 -0.000004 8.296405 187.620515 -142.075229 176.946268 -0.000003 0.000001 2.173898 5.428832 -5.959457 5.372855 1.927602 0.221403 6.049001 -25.655126 6.144833 2.364749 4.959697 -0.000007 0.000004 137.297553 181.918045 114.131676 0.000001 -0.000000 -8.654205 12.496159 -7.057707 2.679695 -0.000001 0.000002 -13.864100 3962.283880 -13.607353 -10.363516 -3.155704 -0.765003 6.687804 33.724967 1.218616 -6.663536 -3.592896 -0.000002 0.000001 -156.691711 187.635118 231.803780 -0.000005 0.000002 -10.352401 -399.611255 -4.070059 -358.648971 -0.000001 0.000002 -12.750305 122.949183 186.043438 -186.901146 2.460598 -0.518090 -2.735505 -1021.984376 -36.624209 45.845944 0.000008 -0.000002 -17.005894 846.289507 140.777685 -170.406595 -0.000001 0.000002 -19.194403 180.025290 156.926055 169.317630 -3.115493 -0.679591 -2.320306 -426.210580 -46.086893 -51.402450 0.000000 -0.000010 -17.680399 -743.928850 173.062268 -230.604781 0.000010 -0.000003 -16.993797 1363.290787 21.052038 -396.999828
40.235413 -0.386093 42.901398 2810.361001 35.023813 -12.735818 -0.201600 0.334097 6.453199 -17.025763 20.933616 7.151249 -0.000001 -0.000002 3.567991 1.915376 -6.999848 -0.416697 -0.000001 -0.000005 8.296400 185.945589 -144.905113 177.378770 -0.000002 -0.000003 2.173897 3.623889 -7.696985 3.001800 1.927602 0.221403 6.048995 -24.406484 5.444814 3.192452 4.959702 0.000001 0.000000 138.030706 184.484721 114.448480 -0.000002 -0.000005 -8.654197 10.029107 -5.966527 3.116460 0.000001 -0.000001 -13.864096 3963.336494 -14.057937 -9.902969 -3.155703 -0.765003 6.687802 34.906973 1.859904 -7.316959 -3.592896 -0.000001 0.000000 -155.240829 188.528138 234.742673 -0.000005 0.000002 -10.352403 -398.960611 -4.629859 -358.689734 -0.000002 0.000000 -12.750303 116.709273 186.925967 -186.566412 2.460597 -0.518104 -2.735501 -1017.387058 -36.910366 50.681117 0.000000 -0.000003 -17.005896 831.529633 139.831130 -162.435299 -0.000003 0.000005 -19.194401 188.131851 156.832372 170.574972 -3.115496 -0.679597 -2.320304 -428.678218 -46.235699 -54.935427 -0.000007 -0.000008 -17.680397 -742.109342 175.051314 -231.857547 0.000003 -0.000003 -16.993795 1362.334451 21.193983 -397.745111
